<svg xmlns="http://www.w3.org/2000/svg" viewBox="0 0 512 512" width="512" height="512">
  <path d="M261.0,362.5C259.1,360.3 260.6,356.6 264.5,353.6C268.0,350.9 268.0,350.9 268.0,341.7C268.0,331.1 268.6,329.7 273.0,329.7C277.3,329.7 278.0,331.1 278.0,341.2C278.0,349.9 278.0,349.9 282.0,353.9C289.1,360.9 284.2,367.9 276.5,361.8C273.7,359.6 273.7,359.6 269.9,361.8C265.5,364.4 262.7,364.6 261.0,362.5ZM243.2,359.5C239.7,356.6 238.3,356.4 233.6,358.6C228.2,361.2 225.1,358.9 226.4,353.4C226.9,351.6 228.4,350.3 231.4,348.9C236.7,346.6 236.8,346.5 241.5,335.8C245.5,326.5 246.6,325.5 250.5,327.0C253.9,328.3 253.8,332.3 250.0,340.7C246.4,348.5 246.4,348.5 249.0,351.7C251.6,355.0 251.6,359.6 249.1,361.0C246.5,362.3 246.6,362.4 243.2,359.5ZM254.0,322.6C241.4,318.9 234.6,315.6 225.0,308.4C216.7,302.1 203.0,284.0 203.0,279.4C203.0,278.8 201.7,274.0 200.1,268.9C195.2,252.7 195.2,236.9 200.1,215.3C202.7,204.1 202.6,203.9 195.7,201.7C185.7,198.6 186.0,196.3 196.8,193.1C205.4,190.5 205.7,189.9 203.6,181.5C200.8,170.5 202.9,168.9 210.6,176.0C215.9,180.9 216.4,180.9 225.3,176.2C251.4,162.6 282.5,181.7 285.0,212.8C285.7,221.6 286.1,223.1 288.9,227.0C290.6,229.4 292.0,231.7 292.0,232.1C292.0,232.6 294.0,236.3 296.5,240.3C299.0,244.4 301.0,248.1 301.0,248.5C301.0,248.9 301.8,250.4 302.9,251.8C304.8,254.5 308.8,261.6 315.5,274.0C317.5,277.6 321.5,284.6 324.5,289.5C332.3,302.6 331.9,303.2 315.1,303.2C275.0,303.4 242.0,279.1 242.0,249.4C242.0,245.8 240.3,244.0 238.9,246.1C236.1,250.4 241.5,268.8 248.2,277.8C256.3,288.7 280.7,302.3 300.0,306.6C311.1,309.1 310.6,312.0 298.0,317.8C284.5,324.0 266.0,326.0 254.0,322.6ZM245.0,200.1C246.8,196.6 243.2,192.2 239.6,193.6C237.4,194.4 236.5,198.7 238.0,200.5C239.8,202.6 243.7,202.4 245.0,200.1ZM178.2,189.2C174.8,181.0 182.4,163.0 189.2,163.0C191.8,163.0 191.5,166.2 188.6,168.9C184.6,172.6 183.0,177.2 183.0,184.4C183.0,191.2 180.2,194.0 178.2,189.2ZM188.7,188.4C185.7,185.3 190.0,172.0 194.3,171.2C196.9,170.7 197.4,173.6 195.2,176.8C194.0,178.3 193.0,181.6 192.8,184.1C192.5,188.3 190.6,190.3 188.7,188.4Z" fill="#f9d100" fill-rule="evenodd"/>
</svg>
